<svg id="Layer_1" data-name="Layer 1" xmlns="http://www.w3.org/2000/svg" viewBox="0 0 413.26 360.28"><defs><style>.cls-1,.cls-11{fill:#44357c;}.cls-2{fill:#efb5a5;}.cls-3{fill:#f3e1dd;}.cls-4{fill:#a487f6;}.cls-5{fill:#fff;}.cls-6{fill:#d3a092;}.cls-7{fill:#f9c623;}.cls-8{fill:#f9a923;}.cls-9{fill:#ffef73;}.cls-10{fill:#f9ec23;}.cls-11{opacity:0.1;}</style></defs><path class="cls-1" d="M529.19,514.59c-23.59-22.76-30.23-32.65-37.25-40.92-5.72-6.73-10.24-12.05-17.21-14.7-8.92-3.38-17.56-.63-25.57,2.85-19,8.22-39.63,19-47.53,22.19l-13.26-7.67a78.05,78.05,0,0,0-77.89,0L297.22,484c-7.89-3.16-28.57-14-47.52-22.19-8-3.48-16.66-6.23-25.57-2.85-7,2.65-11.5,8-17.21,14.7-7,8.27-13.67,18.16-37.26,40.92-18,18.57-19.51,44.38,3,79.8,1.54,2.41,3.15,4.78,4.81,7.11v83.89a78.22,78.22,0,0,0,38.94,67.54l94,54.37a78,78,0,0,0,77.89,0l94-54.37a78.22,78.22,0,0,0,38.94-67.54V601.5c1.67-2.33,3.28-4.7,4.81-7.11C548.71,559,547.18,533.16,529.19,514.59Zm-354.45,42c-5.92-13.73-6.84-25-2.28-27.91l.8-.57c27.66-26.18,36.39-38.46,44.13-47.56,2.2-2.59,4.65-5.47,6.09-6.79a37.93,37.93,0,0,1,5.67,2.08C238.8,480,250.89,487.6,259.07,491l-15.3,12.18c-2-3.15-15.43-15-19-15.92,20.68,36,17.6,82.44,10,106.66-1.83,5.83-3.62,13.89-9.26,17.5C219.33,612.64,190,592,174.74,556.57ZM497.54,684.3a53.39,53.39,0,0,1-26.62,46.11L372,787.5a53.39,53.39,0,0,1-53.24,0L219.9,730.41a53.39,53.39,0,0,1-26.62-46.11V626.78l1.5,1.16c12.4,9.21,22.58,12.09,30.47,12.08a28.57,28.57,0,0,0,15.31-4.25c11.54-7.21,19.27-19.89,22.36-36.67,3.94-21.35,3.75-50-5.48-74.09l61.35-35.42a53.32,53.32,0,0,1,53.24,0L433.39,525c-9.23,24.09-9.43,52.74-5.49,74.09,3.09,16.78,10.83,29.46,22.36,36.67A28.6,28.6,0,0,0,465.57,640c7.89,0,18.08-2.87,30.47-12.08l1.5-1.16Zm18.54-127.73c-15.26,35.4-44.59,56.07-50.74,54.83-5.65-3.61-7.44-11.67-9.26-17.5-7.6-24.22-10.67-70.7,10-106.66-3.59.9-17.06,12.77-19,15.92L431.75,491c8.19-3.38,20.27-11,29.92-15.16a37.93,37.93,0,0,1,5.67-2.08c1.44,1.32,3.89,4.2,6.1,6.79,7.73,9.1,16.46,21.38,44.12,47.56l.8.57C522.92,531.62,522,542.84,516.08,556.57Z" transform="translate(-155.97 -457.43)"/><path class="cls-2" d="M174.74,556.57c-5.92-13.73-6.84-25-2.28-27.91l.8-.57c27.66-26.18,36.39-38.46,44.13-47.56,2.2-2.59,4.65-5.47,6.09-6.79a37.93,37.93,0,0,1,5.67,2.08C238.8,480,250.89,487.6,259.07,491l-15.3,12.18c-2-3.15-15.43-15-19-15.92,20.68,36,17.6,82.44,10,106.66-1.83,5.83-3.62,13.89-9.26,17.5C219.33,612.64,190,592,174.74,556.57Z" transform="translate(-155.97 -457.43)"/><path class="cls-2" d="M497.54,684.3a53.39,53.39,0,0,1-26.62,46.11L372,787.5a53.39,53.39,0,0,1-53.24,0L219.9,730.41a53.39,53.39,0,0,1-26.62-46.11V623.6c.5.39,1,.78,1.5,1.15C207.18,634,217.36,640,225.25,640a28.57,28.57,0,0,0,15.31-4.25c11.54-7.21,19.27-19.89,22.36-36.67,3.94-21.35,3.75-50-5.48-74.09l61.35-35.42a53.32,53.32,0,0,1,53.24,0L433.39,525c-9.23,24.09-9.43,52.74-5.49,74.09,3.09,16.78,10.83,29.46,22.36,36.67A28.6,28.6,0,0,0,465.57,640c7.89,0,18.08-6,30.47-15.27.5-.37,1-.76,1.5-1.15Z" transform="translate(-155.97 -457.43)"/><path class="cls-2" d="M516.08,556.57c-15.26,35.4-44.59,56.07-50.74,54.83-5.65-3.61-7.44-11.67-9.26-17.5-7.6-24.22-10.67-70.7,10-106.66-3.59.9-17.06,12.77-19,15.92L431.75,491c8.19-3.38,20.27-11,29.92-15.16a37.93,37.93,0,0,1,5.67-2.08c1.44,1.32,3.89,4.2,6.1,6.79,7.73,9.1,16.46,21.38,44.12,47.56l.8.57C522.92,531.62,522,542.84,516.08,556.57Z" transform="translate(-155.97 -457.43)"/><path class="cls-3" d="M470.92,718.84,372,775.93a53.39,53.39,0,0,1-53.24,0L219.9,718.84a53.41,53.41,0,0,1-26.62-46.12V684.3a53.39,53.39,0,0,0,26.62,46.11l98.89,57.09a53.39,53.39,0,0,0,53.24,0l98.89-57.09a53.39,53.39,0,0,0,26.62-46.11V672.72A53.41,53.41,0,0,1,470.92,718.84Z" transform="translate(-155.97 -457.43)"/><path class="cls-3" d="M393.37,655c13.51,8.34,21.88,19.87,21.88,32.61,0,25.42-33.28,46-74.33,46-18.28,0-35-4.1-47.95-10.88,13.44,8.29,32,13.42,52.44,13.42,41,0,74.33-20.61,74.33-46C419.74,676.08,409.49,663.47,393.37,655Z" transform="translate(-155.97 -457.43)"/><path class="cls-4" d="M415.25,687.64c0-12.74-8.37-24.27-21.88-32.61-12.95-6.78-29.68-10.87-48-10.87-41.05,0-74.33,20.6-74.33,46,0,12.75,8.37,24.28,21.89,32.61,12.94,6.78,29.67,10.88,47.95,10.88C382,733.67,415.25,713.06,415.25,687.64Z" transform="translate(-155.97 -457.43)"/><ellipse class="cls-1" cx="162.47" cy="231.87" rx="10.33" ry="18.42"/><ellipse class="cls-1" cx="216.41" cy="231.87" rx="10.33" ry="18.42"/><path class="cls-4" d="M392.87,614.56A52.61,52.61,0,0,1,391.38,627a121.88,121.88,0,0,1,22.45,9.32c3.11-13.09-.25-68.49-23.5-70.45-7.9-.67-13.77,5.22-18.11,13.48C383.83,581.27,392.87,596.3,392.87,614.56Z" transform="translate(-155.97 -457.43)"/><path class="cls-1" d="M392.87,614.56c0-18.26-9-33.29-20.65-35.24-7.2,13.72-10.14,34-11.05,41.74A152,152,0,0,1,391.38,627,52.61,52.61,0,0,0,392.87,614.56Z" transform="translate(-155.97 -457.43)"/><ellipse class="cls-5" cx="229.56" cy="141.21" rx="9.42" ry="10.81"/><path class="cls-4" d="M298,614.56c0-18.26,9-33.29,20.64-35.24-4.34-8.26-10.2-14.15-18.11-13.48-23.24,2-26.6,57.36-23.49,70.45A121.59,121.59,0,0,1,299.45,627,52.09,52.09,0,0,1,298,614.56Z" transform="translate(-155.97 -457.43)"/><path class="cls-1" d="M298,614.56A52.09,52.09,0,0,0,299.45,627a152,152,0,0,1,30.21-5.91c-.91-7.76-3.86-28-11.06-41.74C307,581.27,298,596.3,298,614.56Z" transform="translate(-155.97 -457.43)"/><ellipse class="cls-5" cx="149.32" cy="141.21" rx="9.42" ry="10.81"/><path class="cls-1" d="M346.31,756.22c3.05,9,14,13.49,24.52,9.95s16.55-13.73,13.5-22.76Z" transform="translate(-155.97 -457.43)"/><path class="cls-6" d="M465.32,611.46c6.16,1.24,35.49-19.44,50.75-54.84,5.92-13.73,6.84-24.94,2.28-27.91l-.81-.56c-21-19.92-31.12-31.78-38.14-40.33h0s26.61,35.47,27.21,44.46S481.44,585,470.66,587.9c-9.5,2.53-18.06-19.24-20-24.51A136,136,0,0,0,456.06,594C457.89,599.78,459.67,607.85,465.32,611.46Z" transform="translate(-155.97 -457.43)"/><path class="cls-6" d="M225.47,611.46c5.65-3.61,7.44-11.68,9.26-17.5,7.6-24.22,10.67-70.71-10-106.66,0,0,8.74,76.06-5.78,94.72-8.39,10.79-44.22-25.4-44.22-25.4C190,592,219.32,612.7,225.47,611.46Z" transform="translate(-155.97 -457.43)"/><path class="cls-6" d="M345.46,492.37c9.89,4.26,69.21,39.81,83.31,48.39A110.64,110.64,0,0,1,433.43,525l-61.35-35.42a53.34,53.34,0,0,0-53.25,0l-20.83,12S328.71,485.17,345.46,492.37Z" transform="translate(-155.97 -457.43)"/><circle class="cls-6" cx="296.41" cy="216.49" r="4.72"/><path class="cls-6" d="M471.26,686.81a4.72,4.72,0,1,0,4.72,4.71A4.71,4.71,0,0,0,471.26,686.81Z" transform="translate(-155.97 -457.43)"/><path class="cls-6" d="M442.94,692.4a4.72,4.72,0,1,0,4.72,4.72A4.71,4.71,0,0,0,442.94,692.4Z" transform="translate(-155.97 -457.43)"/><circle class="cls-6" cx="82.47" cy="216.49" r="4.72"/><path class="cls-6" d="M219.56,686.81a4.72,4.72,0,1,0,4.72,4.71A4.72,4.72,0,0,0,219.56,686.81Z" transform="translate(-155.97 -457.43)"/><path class="cls-6" d="M247.88,692.4a4.72,4.72,0,1,0,4.72,4.72A4.72,4.72,0,0,0,247.88,692.4Z" transform="translate(-155.97 -457.43)"/></svg>